<?xml version="1.0" encoding="iso-8859-1"?>
<!-- Generator: Adobe Illustrator 19.0.0, SVG Export Plug-In . SVG Version: 6.00 Build 0)  -->
<svg version="1.1" id="Capa_1" xmlns="http://www.w3.org/2000/svg" xmlns:xlink="http://www.w3.org/1999/xlink" x="0px" y="0px"
	 viewBox="0 0 490 490" style="enable-background:new 0 0 490 490;" xml:space="preserve">
<g>
	<g>
		<g>
			<path d="M349.3,104.8c-17.8,0-34.8,3.4-51,9.4c-16.4-6.7-34.4-10.4-53.3-10.4c-18.2,0-36.5,3.5-53.1,10.6
				c-15.9-6.2-33.2-9.6-51.2-9.6C63.6,104.8,0,167.3,0,245.5s63.6,140.7,140.7,140.7c18.3,0,35.7-3.4,51.8-9.6
				c16.8,6.6,33.9,9.6,52.5,9.6s36.3-3.7,52.5-10.3c16.6,7.2,34.2,10.3,51.8,10.3c77.1,0,140.7-63.6,140.7-140.7
				S427.4,104.8,349.3,104.8z M140.7,345.6c-55.3,0-100.1-44.8-100.1-100.1s44.8-100.1,100.1-100.1c56.3,0,100.1,44.8,100.1,100.1
				C240.8,285.1,209.5,345.6,140.7,345.6z M245,345.6c-1.5,0-2.9,0-4.4-0.1c25.9-25.4,41.9-60.7,41.9-100c0-39.2-16.3-74.5-42.2-100
				c1.6-0.1,3.1-0.1,4.7-0.1c55.3,0,100.1,44.8,100.1,100.1S300.3,345.6,245,345.6z M349.3,345.6c-1.9,0-3.8,0-5.7-0.1
				c26.1-25.9,42.2-61.8,42.2-101c0-38.4-15.5-73.4-40.7-98.9c1.4-0.1,2.8-0.1,4.2-0.1c55.3,0,100.1,44.8,100.1,100.1
				C449.3,300.8,404.5,345.6,349.3,345.6z"/>
		</g>
		<path d="M165.4,185.8c-6.4-2.5-13.1-3.7-19.9-3.7c-24.4,0-45.3,16.2-54,39.1H76.6c-4.8,0-8.8,3.9-8.8,8.8c0,4.9,3.9,8.8,8.8,8.8
			h10.8c-0.2,2.1-0.2,10.7,0,12.8H76.6c-4.8,0-8.8,3.9-8.8,8.8s3.9,8.8,8.8,8.8h14.9c8.7,22.9,29.7,39.1,54,39.1
			c5.6,0,11.1-0.8,16.4-2.5c4.6-1.5,7.2-6.4,5.7-11s-6.4-7.2-11-5.7c-3.6,1.1-7.4,1.7-11.1,1.7c-14.7,0-27.6-8.6-34.8-21.6h37.1
			c4.8,0,8.8-3.9,8.8-8.8s-3.9-8.8-8.8-8.8H105c-0.3-2.1-0.3-10.7,0-12.8h42.8c4.8,0,8.8-3.9,8.8-8.8c0-4.9-3.9-8.8-8.8-8.8h-37.1
			c7.2-12.9,20.1-21.6,34.8-21.6c4.6,0,9.2,0.9,13.5,2.5c4.5,1.8,9.6-0.5,11.3-5C172.1,192.6,169.9,187.5,165.4,185.8z"/>
	</g>
</g>
<g>
</g>
<g>
</g>
<g>
</g>
<g>
</g>
<g>
</g>
<g>
</g>
<g>
</g>
<g>
</g>
<g>
</g>
<g>
</g>
<g>
</g>
<g>
</g>
<g>
</g>
<g>
</g>
<g>
</g>
</svg>
